<?xml version="1.0" encoding="utf-8"?>
<!-- Generator: Adobe Illustrator 16.0.0, SVG Export Plug-In . SVG Version: 6.00 Build 0)  -->
<!DOCTYPE svg PUBLIC "-//W3C//DTD SVG 1.1//EN" "http://www.w3.org/Graphics/SVG/1.1/DTD/svg11.dtd">
<svg version="1.1" xmlns="http://www.w3.org/2000/svg" xmlns:xlink="http://www.w3.org/1999/xlink" x="0px" y="0px"
	 width="18.775px" height="12.707px" viewBox="0 0 18.775 12.707" enable-background="new 0 0 18.775 12.707" xml:space="preserve">
<g id="Layer_1" display="none">
	<rect x="-47.749" y="-33.476" display="inline" stroke="#000000" stroke-miterlimit="10" width="103.988" height="104.131"/>
</g>
<g id="Layer_2">
	<path fill="#FFFFFF" d="M18.775,1.516c0,0.658-0.533,1.191-1.191,1.191H1.191C0.533,2.707,0,2.173,0,1.516V1.191
		C0,0.533,0.533,0,1.191,0h16.393c0.658,0,1.191,0.533,1.191,1.191V1.516z"/>
	<path fill="#FFFFFF" d="M18.775,1.516c0,0.658-0.533,1.191-1.191,1.191H1.191C0.533,2.707,0,2.173,0,1.516V1.191
		C0,0.533,0.533,0,1.191,0h16.393c0.658,0,1.191,0.533,1.191,1.191V1.516z"/>
	<path fill="#FFFFFF" d="M18.775,6.516c0,0.658-0.533,1.191-1.191,1.191H1.191C0.533,7.707,0,7.173,0,6.516V6.191
		C0,5.533,0.533,5,1.191,5h16.393c0.658,0,1.191,0.533,1.191,1.191V6.516z"/>
	<path fill="#FFFFFF" d="M18.775,11.516c0,0.658-0.533,1.191-1.191,1.191H1.191C0.533,12.707,0,12.173,0,11.516v-0.325
		C0,10.533,0.533,10,1.191,10h16.393c0.658,0,1.191,0.533,1.191,1.191V11.516z"/>
</g>
</svg>
