<?xml version="1.0" encoding="utf-8"?>
<!-- Generator: Adobe Illustrator 16.0.3, SVG Export Plug-In . SVG Version: 6.00 Build 0)  -->
<!DOCTYPE svg PUBLIC "-//W3C//DTD SVG 1.1//EN" "http://www.w3.org/Graphics/SVG/1.1/DTD/svg11.dtd">
<svg version="1.1" id="Layer_1" xmlns="http://www.w3.org/2000/svg" xmlns:xlink="http://www.w3.org/1999/xlink" x="0px" y="0px"
	 width="80.2px" height="103.299px" viewBox="0 0 80.2 103.299" enable-background="new 0 0 80.2 103.299" xml:space="preserve">
<g>
	<path fill="#FFFFFF" d="M64.337,65.234c2.136-1.356,4.141-2.957,5.968-4.805c13.163-13.311,13.162-34.97-0.003-48.283
		C63.922,5.696,55.438,2.145,46.412,2.145c-6.566,0-12.841,1.891-18.233,5.4C19.622-1.232,0.97,0.068,0.97,0.068
		c8.387,1.986,16.667,6.754,21.494,11.906c-0.833,0.857-1.583,1.773-2.245,2.745c-3.123,3.867-5.274,8.272-6.467,12.881
		c-3.783-2.676-6.628-5.715-7.796-8.667C3.228,12.045,9.842,5.52,9.842,5.52s-11.407,7.33-9.661,15.913
		c1.402,6.891,6.681,10.493,12.559,12.339c-0.693,9.561,2.56,19.362,9.776,26.657c3.955,3.998,8.719,6.879,13.917,8.495
		c7.359,6.646,16.549,10.835,27.292,7.659C78.326,72.271,80.2,48.365,80.2,48.365S75.982,62.828,64.337,65.234z M24.225,24.695
		c0.791-1.085,1.641-2.137,2.518-3.166c-0.135,1.924-0.818,3.684-1.646,5.159C24.78,26.012,24.483,25.344,24.225,24.695z
		 M24.088,46.577c-0.342-0.531-0.68-1.064-0.992-1.604c1.747-2.475,3.76-5.059,6.019-7.725c1.988,2.708,4.295,5.451,6.885,8.145
		l-6.173,6.241C27.858,50.045,25.936,48.355,24.088,46.577z M47.141,55.076c2.666,1.893,5.285,3.438,7.784,4.629
		c0.204,0.417,0.442,0.812,0.713,1.184c-1.54,1.028-3.107,1.99-4.665,2.873c-3.023-1.015-6.178-2.427-9.359-4.174
		C43.414,58.205,45.262,56.697,47.141,55.076z M47.036,52.517c-2.762-2.057-5.543-4.461-8.224-7.124l7.599-7.682l7.889,7.975
		C51.853,48.125,49.42,50.414,47.036,52.517z M54.117,56.232c0,0.288,0.018,0.572,0.047,0.853c-1.773-0.943-3.608-2.068-5.471-3.368
		c2.308-2.048,4.653-4.258,7.011-6.607L58,49.43C55.681,50.792,54.117,53.325,54.117,56.232z M47.816,36.29l7.831-7.916
		c2.634,2.772,4.979,5.627,6.977,8.44c-2.111,2.423-4.422,4.915-6.916,7.454L47.816,36.29z M46.41,34.868l-7.793-7.878
		c2.552-2.543,5.087-4.923,7.569-7.102c2.712,2.05,5.438,4.429,8.062,7.057L46.41,34.868z M37.211,25.568l-5.428-5.488
		c0.416-1.27,0.599-2.614,0.451-4.012c1.062-0.88,2.174-1.732,3.331-2.544c2.81,1.192,5.862,2.953,8.97,5.157
		C42.127,20.806,39.675,23.112,37.211,25.568z M30.931,22.062l4.871,4.924c-2.331,2.374-4.506,4.712-6.515,7.001
		c-1.362-2.014-2.514-3.984-3.484-5.884C27.624,26.564,29.636,24.492,30.931,22.062z M31.029,35.04
		c1.913-2.168,3.971-4.381,6.179-6.631l7.796,7.881l-7.598,7.681c-2.61-2.722-4.94-5.527-6.938-8.297
		c0.07-0.081,0.145-0.162,0.215-0.243c0.969-0.074,1.542-0.146,1.542-0.146C31.826,35.214,31.428,35.123,31.029,35.04z
		 M37.405,46.815c2.647,2.631,5.37,5.001,8.08,7.05c-1.965,1.685-3.892,3.238-5.763,4.649c-2.795-1.646-5.591-3.538-8.316-5.635
		L37.405,46.815z M53.588,64.55c1.154-0.689,2.299-1.431,3.433-2.194c0.862,0.702,1.876,1.217,2.984,1.497
		c-1.854,0.483-3.829,0.738-5.91,0.738c-0.13,0-0.26-0.007-0.39-0.012C53.665,64.569,53.627,64.561,53.588,64.55z M67.176,50.466
		c-1.387-1.3-3.238-2.102-5.278-2.102c-0.655,0-1.288,0.091-1.895,0.245l-2.888-2.919c2.396-2.439,4.625-4.836,6.677-7.176
		c2.263,3.402,3.996,6.7,5.09,9.66C68.324,48.964,67.753,49.727,67.176,50.466z M57.054,26.952l7.165-7.243
		c2.285,2.458,4.206,5.1,5.744,7.832c-1.729,2.457-3.73,5.03-5.983,7.695C61.99,32.484,59.667,29.695,57.054,26.952z M55.654,25.523
		c-2.59-2.596-5.258-4.937-7.918-6.977c2.652-2.261,5.232-4.283,7.695-6.033c2.601,1.582,5.088,3.515,7.389,5.766L55.654,25.523z
		 M46.094,17.324c-2.938-2.118-5.836-3.854-8.574-5.124c2.34-1.513,4.775-2.869,7.162-4.041c2.996,0.639,5.975,1.739,8.845,3.266
		C51.135,13.161,48.646,15.135,46.094,17.324z M35.282,11.259c-1.859-0.709-3.612-1.169-5.23-1.374
		c-0.12-0.188-0.254-0.364-0.383-0.545c2.697-1.206,5.745-1.833,9.052-1.833c0.853,0,1.709,0.052,2.568,0.133
		C39.28,8.718,37.25,9.923,35.282,11.259z M33.292,12.677c-0.51,0.378-0.997,0.781-1.492,1.176
		c-0.166-0.609-0.371-1.187-0.602-1.745C31.874,12.259,32.569,12.441,33.292,12.677z M24.187,29.381
		c0.773,1.493,1.665,3.023,2.671,4.579c-2.352-0.728-4.646-1.635-6.811-2.681c0.856-1.54,1.793-3.097,2.823-4.635
		c0.287,0.662,0.604,1.336,0.943,2.018c-1.124,1.497-2.138,2.395-2.138,2.395S22.737,30.455,24.187,29.381z M27.915,35.573
		c-2.183,2.559-4.154,5.05-5.885,7.447c-1.308-2.588-2.256-5.235-2.879-7.866C22.444,35.586,25.553,35.639,27.915,35.573z
		 M17.421,36.5c0.423,1.601,0.98,3.202,1.642,4.79c-0.838-0.962-1.649-1.942-2.433-2.938C16.878,37.747,17.138,37.132,17.421,36.5z
		 M69.512,57.834c0.106-0.518,0.163-1.053,0.163-1.603c0-1.543-0.446-2.979-1.205-4.193c0.391-0.493,0.784-0.98,1.167-1.498
		C70.443,53.561,70.438,56.087,69.512,57.834z M70.246,46.173c-1.189-2.906-2.905-6.036-5.083-9.245
		c2.173-2.551,4.129-5.027,5.841-7.403c1.601,3.272,2.664,6.633,3.171,9.925C72.999,41.701,71.673,43.99,70.246,46.173z
		 M72.181,54.172c-0.05-1.714-0.416-3.627-1.085-5.688c1.207-1.768,2.353-3.62,3.414-5.485
		C74.635,47.033,73.872,50.861,72.181,54.172z M76.312,47.168c0.284-2.369,0.251-4.839-0.082-7.349
		c0.708-1.376,1.357-2.731,1.937-4.037C78.228,39.636,77.611,43.498,76.312,47.168z M77.803,31.371
		c-0.582,1.595-1.317,3.344-2.179,5.169c-0.698-2.973-1.811-5.959-3.325-8.863c1.126-1.65,2.129-3.247,3.002-4.782
		C76.53,25.611,77.362,28.465,77.803,31.371z M74.214,20.726c-0.852,1.593-1.85,3.258-3.001,4.992
		c-1.537-2.592-3.405-5.092-5.588-7.431l3.951-3.994C71.418,16.276,72.964,18.439,74.214,20.726z M68.171,12.87l-3.945,3.988
		c-2.188-2.141-4.536-4.017-6.995-5.586c1.686-1.132,3.305-2.119,4.847-2.958C64.259,9.568,66.303,11.092,68.171,12.87z
		 M59.975,7.199c-1.484,0.856-3.033,1.842-4.633,2.943c-2.521-1.423-5.134-2.54-7.781-3.318c1.859-0.811,3.647-1.492,5.286-2.021
		C55.317,5.315,57.708,6.117,59.975,7.199z M46.412,4.145c0.728,0,1.45,0.034,2.168,0.082c-1.336,0.534-2.74,1.148-4.183,1.837
		c-1.895-0.361-3.794-0.556-5.678-0.556c-0.592,0-1.169,0.038-1.746,0.075C39.991,4.638,43.164,4.145,46.412,4.145z M26.295,17.884
		c0.098,0.295,0.157,0.585,0.224,0.877c-1.084,1.182-2.124,2.406-3.093,3.676c-1.038-3.375-1.151-6.213-0.164-8.127l2.68,2.709
		C26.066,17.308,26.2,17.598,26.295,17.884z M20.63,17.939c0.058,1.928,0.52,4.11,1.355,6.468c-1.334,1.903-2.546,3.849-3.621,5.771
		C18.058,25.756,18.794,21.542,20.63,17.939z M16.444,25.58c-0.115,1.211-0.148,2.447-0.105,3.699
		c-0.275-0.166-0.553-0.329-0.821-0.499C15.772,27.701,16.078,26.632,16.444,25.58z M14.705,34.33
		c0.459,0.113,0.92,0.217,1.381,0.312c-0.514,1.096-0.996,2.172-1.41,3.193C14.62,36.667,14.635,35.497,14.705,34.33z
		 M15.192,42.269c0.349-1.103,0.794-2.322,1.313-3.606c0.548,1.348,1.7,4.051,3.418,7.438c-0.844,1.283-1.637,2.544-2.329,3.76
		C16.475,47.422,15.676,44.87,15.192,42.269z M18.692,52.01c0.673-1.254,1.435-2.551,2.285-3.886c1.292,2.42,2.832,5.083,4.61,7.793
		l-2.342,2.368C21.444,56.348,19.927,54.239,18.692,52.01z M24.65,59.708l2.076-2.098c1.476,2.139,3.098,4.276,4.859,6.319
		c-0.24,0.136-0.482,0.275-0.718,0.403C28.64,63.067,26.554,61.52,24.65,59.708z"/>
	<path fill="#FFFFFF" d="M48.678,78.01c-19.352-5.722-30.967,25.289-30.967,25.289c8.336-10.836,22.034-18.966,30.375-18.061
		C56.421,86.138,59.4,96.374,59.4,96.374S58.176,80.818,48.678,78.01z"/>
</g>
</svg>
